/* XPM */
static char icon_xpm[] = {
/* columns rows colors chars-per-pixel */
"16 16 198 2 ",
"   c None",
".  c gray11",
"X  c #1B201E",
"o  c #591556",
"O  c #551363",
"+  c #661173",
"@  c #6B1173",
"#  c #6F1173",
"$  c #741173",
"%  c #136751",
"&  c #136753",
"*  c #136755",
"=  c #126D53",
"-  c #136857",
";  c #136959",
":  c #01F57F",
">  c #00F97C",
",  c #00F97E",
"<  c #00F97F",
"1  c #5D08B9",
"2  c #6B08B9",
"3  c #7908B9",
"4  c #5025B5",
"5  c #3D7FAE",
"6  c #396CBC",
"7  c #485AA4",
"8  c #3A04D9",
"9  c #363BCA",
"0  c #3637DB",
"q  c #1209F6",
"w  c #150EF6",
"e  c #150EF8",
"r  c #1B16F2",
"t  c #1B16F5",
"y  c #2A10EF",
"u  c #2912EF",
"i  c #2012F1",
"p  c #2012F4",
"a  c #102AF3",
"s  c #102AF5",
"d  c #0D3BF0",
"f  c #0D3BF2",
"g  c #2934E2",
"h  c #2835EB",
"j  c #3537E2",
"k  c #4B04D9",
"l  c #5C04D9",
"z  c #6E04D8",
"x  c #7F04D8",
"c  c #4E28DB",
"v  c #4F2ADE",
"b  c #5625DF",
"n  c #5426DF",
"m  c #5D23DE",
"M  c #431AE6",
"N  c #441BE8",
"B  c #5E08F4",
"V  c #6900F8",
"C  c #7200F7",
"Z  c #7400F7",
"A  c #7D00F7",
"S  c #7E08F3",
"D  c #4B22E0",
"F  c #4B22E2",
"G  c #5C22E0",
"H  c #2E42D7",
"J  c #2A43D8",
"K  c #1861D7",
"L  c #3068C1",
"P  c #396DC5",
"I  c #2E6AD3",
"U  c #0F5EE4",
"Y  c #2E43E3",
"T  c #2A44E7",
"R  c #0F62EE",
"E  c #1866E9",
"W  c #494FCB",
"Q  c #5041D1",
"!  c #5041D2",
"~  c #5052D7",
"^  c #6647DB",
"/  c #5E78C7",
"(  c #597DC4",
")  c #8808B9",
"_  c #9608B9",
"`  c #A408B9",
"'  c #B308B8",
"]  c #8F04D8",
"[  c #A004D7",
"{  c #8600F7",
"}  c #8800F7",
"|  c #9100F7",
" . c #9300F7",
".. c #9A00F7",
"X. c #9C00F7",
"o. c #A500F7",
"O. c #A700F6",
"+. c #AE00F6",
"@. c #B000F6",
"#. c #B900F6",
"$. c #BB00F6",
"%. c #C100F6",
"&. c #C400F6",
"*. c #CC00F6",
"=. c #CF00F6",
"-. c #D800F6",
";. c #E300F5",
":. c #56BDA7",
">. c #52BCA9",
",. c #5ABFA9",
"<. c #11CB8F",
"1. c #10C992",
"2. c #06D093",
"3. c #05D693",
"4. c #06D096",
"5. c #06D099",
"6. c #06D09C",
"7. c #05E085",
"8. c #02EB82",
"9. c #06EA81",
"0. c #02EB87",
"q. c #02EC8D",
"w. c #01F382",
"e. c #01F386",
"r. c #00FA80",
"t. c #00FA82",
"y. c #00FA83",
"u. c #00FA84",
"i. c #00FA86",
"p. c #00FA87",
"a. c #01F38A",
"s. c #01F38D",
"d. c #00FA88",
"f. c #00FA8A",
"g. c #00FA8B",
"h. c #00FA8C",
"j. c #00FA8F",
"k. c #02EC93",
"l. c #06EB94",
"z. c #05E19F",
"x. c #01F491",
"c. c #01F495",
"v. c #00FA90",
"b. c #00FB93",
"n. c #00FB94",
"m. c #00FB97",
"M. c #01F499",
"N. c #01F49D",
"B. c #00FB98",
"V. c #00FB9B",
"C. c #00FB9F",
"Z. c #11CEAA",
"A. c #06D0A0",
"S. c #06D0A3",
"D. c #06D0A6",
"F. c #06D1A9",
"G. c #06D1AC",
"H. c #10CDB3",
"J. c #06D1B0",
"K. c #01F5A1",
"L. c #01F5A5",
"P. c #00FBA3",
"I. c #00F9AB",
"U. c #04EEBB",
"Y. c #00FCB6",
"T. c #00FDBA",
"R. c #00FDBD",
"E. c #00FDBE",
"W. c #5BE19B",
"Q. c #55C4A5",
"!. c #56C4A5",
"~. c #57C6A6",
"^. c #07CAC0",
"/. c #06CBC7",
"(. c #03E7C5",
"). c #01EECE",
"_. c #00FDC0",
"`. c #00FDC2",
"'. c #00FDC3",
"]. c #00FDC4",
"[. c #00FDC6",
"{. c #00FDC8",
"}. c #00FEC9",
"|. c #00FECA",
" X c #00FECC",
".X c #00FECE",
"XX c #00FECF",
"oX c #02F0D6",
"OX c #00FED0",
"+X c #00FED2",
"@X c #00FED4",
"#X c #00FED6",
"$X c #00FED8",
"%X c #00FEDA",
"&X c #00FFDC",
"*X c #07CDE2",
"=X c #06CDE4",
"-X c #01F0E0",
/* pixels */
"          u h T Y j N           ",
"      p E oX+X}.`.R.U.I F       ",
"    t *X(.; - * & & = I.H.v     ",
"  e =X%XG.O + @ # $ o L.P.Z.b   ",
"  R &X#XG.[ %.*.-.;.' K.C.V.P   ",
"q -X#X+XF.] +.#.&.*.` N.V.n.l.m ",
"s %X#XXXD.x ..o.@.$._ M.n.v.f.! ",
"f #XXX}.D.z { | X.O.) c.n.h.i.W ",
"d +XXX[.A.l C A }  .3 x.v.f.r.W ",
"a XX[.`.6.k B V C { 2 s.f.i., ! ",
"q ).`.R.5.8 ~ ( ( ^ 2 a.i., 9.m ",
"  U `.T.4.9 !.W.W.!.4 a.r., 6   ",
"  w /.Y.2.5 >.!.!.:.7 w.r.<.n   ",
"    r ^.3.. . . . . X : 1.v     ",
"      i K z.k.q.0.8.7.L F       ",
"          y g J H 0 M           "
};
